<svg xmlns="http://www.w3.org/2000/svg" width="118" height="85" viewBox="0 0 118 85" fill="none"><g clip-path="url(#clip0_1068_1519)"><path d="M40.4002 41.5999C40.5002 41.5999 40.6002 41.5999 40.7002 41.6999C40.7002 41.7999 40.7002 41.8999 40.6002 41.9999C30.1002 47.2999 5.60015 61.3999 12.2002 73.5999C16.6002 81.6999 40.1002 79.8999 47.3002 79.0999C47.4002 79.0999 47.5002 79.1999 47.5002 79.2999C47.5002 79.3999 47.5002 79.4999 47.4002 79.4999C38.9002 82.1999 6.00015 91.3999 0.500154 74.6999C-4.09985 60.9999 28.0002 46.5999 40.4002 41.5999Z" fill="#0070B7"></path><path d="M112.5 30.1999C112.5 30.0999 112.4 29.9999 112.4 29.8999C109.7 23.2999 103.8 19.9999 94.7002 19.9999H82.5002C80.1002 19.6999 78.9002 18.5999 78.9002 16.5999V16.0999C78.9002 14.1999 80.1002 12.9999 82.5002 12.6999H96.1002L96.8002 12.5999C104 12.2999 111.7 6.6999 114 -0.100098H106.2C106 -9.76548e-05 105.8 -9.76548e-05 105.6 -9.76548e-05H82.0002C79.8002 -9.76548e-05 77.7002 0.399902 75.7002 1.1999C73.6002 2.2999 71.6002 3.6999 70.0002 5.3999V23.7999C69.9002 23.8999 100.4 21.1999 112.5 30.1999Z" fill="#0070B7"></path><path d="M111.5 35.9C111.4 35.8 111.4 35.7 111.3 35.7C111.3 35.7 111.4 35.8 111.5 35.9Z" fill="#1B89CC"></path><path d="M111.6 36C111.5 36 111.5 35.9 111.6 36Z" fill="white"></path><path d="M117.2 37C116.5 34.2 114.9 31.8 112.5 30.2C101.5 22 75.3997 23.4999 70.5997 23.7999C70.1997 23.7999 69.8997 23.5 69.8997 23.2C69.8997 23.2 69.8997 23.2 69.8997 23.1V0.899951C69.8997 0.499951 69.5997 0.199951 69.1997 0.199951H46.6997C46.4997 0.199951 46.2997 0.299951 46.0997 0.499951L3.99974 58.0999C3.79974 58.3999 3.79974 58.7999 4.09974 59.0999C4.29974 59.2999 4.69974 59.2999 4.89974 59.0999C11.5997 54.4999 27.1997 44.4 43.4997 38.2C56.8997 33.1 97.3997 25.4999 109.8 34.2999C110.3 34.6999 110.8 35.0999 111.2 35.5999C111.3 35.6999 111.3 35.7999 111.4 35.7999L111.5 35.9C112.7 37.5 113.2 39.3999 113.1 41.2999C113.1 41.3999 113.1 41.4999 113.1 41.5999V41.7C113.1 42.5 112.9 43.2999 112.8 44.0999C112.7 44.4999 112.9 44.8 113.3 44.9C113.5 45 113.8 44.9 114 44.7C115.8 42.9 117.8 39.8 117.2 37ZM50.2997 26L42.9997 27.5C42.5997 27.6 42.2997 27.3 42.1997 27C42.1997 26.8 42.1997 26.6 42.2997 26.5L49.4997 15.6C49.6997 15.3 50.0997 15.2 50.4997 15.4C50.6997 15.5 50.7997 15.7 50.7997 16V25.4C50.7997 25.6 50.5997 25.9 50.2997 26Z" fill="white"></path><path d="M69.8998 40V34.5C69.8998 34.2 69.6998 34 69.3998 34C69.3998 34 69.3998 34 69.2998 34C62.0998 35.1 56.0998 36.3 51.1998 37.6C50.9998 37.7 50.7998 37.8 50.7998 38.1V40.1C50.7998 40.4 50.9998 40.6 51.2998 40.6C53.3998 40.6 60.9998 40.6 69.3998 40.6C69.6998 40.4 69.8998 40.2 69.8998 40C69.8998 39.9 69.8998 39.9 69.8998 40Z" fill="white"></path><path d="M108.8 35.6999C105.2 33.1999 98.9004 31.8999 89.9004 31.8999C88.0004 31.8999 86.1004 31.9999 84.2004 32.0999C83.9004 32.0999 83.7004 32.3999 83.7004 32.6999C83.7004 32.9999 84.0004 33.1999 84.3004 33.1999H96.6004C101.8 33.0999 101 37.2999 100.9 37.7999V37.8999C100.2 39.6999 98.6004 40.5999 96.1004 40.5999H70.0004C60.5004 40.5999 51.8004 40.5999 50.9004 40.5999H50.8004C44.6004 40.7999 40.5004 42.5999 27.4004 52.2999C27.2004 52.4999 27.1004 52.7999 27.3004 53.0999C27.4004 53.1999 27.6004 53.2999 27.7004 53.2999H98.0004C100.4 53.2999 102.8 52.6999 105 51.5999C111.1 49.0999 113.9 39.2999 108.8 35.6999Z" fill="#0070B7"></path><path d="M22.301 63.5C22.301 63.5 22.201 63.8 22.601 64.1C22.801 64.4 23.201 64.6 23.601 64.6C24.101 64.6 24.701 64.6 25.401 64.6H25.501H27.401H27.501H37.901H38.001H39.501C39.701 64.6 39.801 64.6 39.901 64.6C41.001 64.4 41.801 63.4 41.601 62.3V59.5H40.001V62.4001V62.5C39.901 62.9 39.601 63.1 39.301 63.1H38.001H37.901H36.201C36.301 62.8 36.401 62.5 36.401 62.1C36.401 60.3 34.601 59.4001 33.201 59.4001C32.001 59.4001 31.001 59.9 30.201 60.8L30.301 59.8H28.801V63.1H27.501H27.401H25.501H25.401H24.501H24.401C24.101 63 23.901 62.7001 23.901 62.4001V58.8L22.301 59.2001V59.6C20.401 59.6 19.001 60.3 19.001 62.1C19.101 63.1 19.901 64 21.001 64.1C21.801 64.2 22.301 63.5 22.301 63.5ZM33.301 60.8C33.801 60.9 34.801 61.1 34.801 62.1C34.701 62.7 34.201 63.1 33.601 63.1H30.301C30.601 61.7 31.901 60.7 33.301 60.8ZM21.401 63C20.801 62.9 20.401 62.4001 20.501 61.9001C20.501 60.8001 21.501 60.5 22.301 60.5V61.9001C22.301 62.6001 21.901 63 21.401 63Z" fill="white"></path><path d="M23.2006 57H21.6006V58.3H23.2006V57Z" fill="white"></path><path d="M21.0004 57H19.4004V58.3H21.0004V57Z" fill="white"></path><path d="M33.8002 57H32.2002V58.3H33.8002V57Z" fill="white"></path><path d="M41.101 65.3H39.501V66.6H41.101V65.3Z" fill="white"></path><path d="M51.601 56.5999H50.001V57.8999H51.601V56.5999Z" fill="white"></path><path d="M49.3002 56.5999H47.7002V57.8999H49.3002V56.5999Z" fill="white"></path><path d="M55.0006 64.6999C56.1006 64.4999 56.9006 63.5 56.7006 62.4V57.2H55.1006V62.4V62.5C55.0006 62.9 54.7006 63.0999 54.4006 63.0999H53.0006H51.5006C51.9006 62.6999 52.1006 62.0999 52.1006 61.5999C52.2006 60.1999 51.0006 59.0999 49.6006 59.0999C48.2006 59.0999 47.1006 60.1999 47.1006 61.5999C47.1006 62.1999 47.3006 62.6999 47.6006 63.0999H46.3006H45.2006H45.1006C44.8006 62.9999 44.6006 62.7 44.6006 62.4V57.2H43.1006V62.4C43.1006 62.6 43.1006 62.6999 43.1006 62.7999C43.1006 63.9999 44.1006 64.6999 45.2006 64.6999H46.1006H48.4006C48.8006 64.6999 49.2006 64.6 49.5006 64.4C49.9006 64.6 50.3006 64.6999 50.7006 64.6999H53.0006L54.6006 64.8C54.8006 64.7 54.9006 64.6999 55.0006 64.6999ZM49.7006 62.7C49.2006 62.5 48.8006 62.1 48.8006 61.4V61.2999C48.8006 60.7999 49.3006 60.5 49.8006 60.5C50.3006 60.5 50.6006 61 50.6006 61.5C50.6006 62.3 49.7006 62.7 49.7006 62.7Z" fill="white"></path><path d="M59.8008 57.0999H58.3008V64.5999H59.8008V57.0999Z" fill="white"></path><path d="M82.1004 60.8C82.1004 59.3 80.6004 58.5 79.1004 58.5C78.0004 58.5 76.9004 59.1 76.4004 59.9C74.7004 60.1 73.5004 61.4 73.4004 63H72.7004H70.7004H70.6004H69.1004V61.3C69.1004 59.9 68.3004 59.3 66.8004 59.3H66.7004C65.6004 59.2 64.7004 60 64.6004 61H66.1004C66.1004 60.7 66.4004 60.4 66.8004 60.4C67.5004 60.4 67.5004 60.9 67.5004 60.9V63H64.4004V64.5H70.6004H70.7004H72.7004H82.1004V60.8ZM76.1004 63.1H74.7004C74.8004 62.4 75.2004 61.4 76.1004 61.4V63.1ZM77.5004 63.1V61.5C78.2004 61.7 78.3004 62.6 78.3004 63.1H77.5004ZM80.5004 63.1H79.8004C80.0004 61.8 79.2004 60.6 78.0004 60.3C78.3004 60 78.7004 59.9 79.1004 59.9C80.0004 59.9 80.5004 60.5 80.5004 60.9V63.1Z" fill="white"></path><path d="M97.2006 64.8999C98.1006 64.8999 99.0006 63.7999 99.0006 62.6999V59.5999H97.5006V62.6999C97.5006 63.1999 97.4006 63.7999 96.6006 63.7999C96.1006 63.7999 95.7006 63.3999 95.7006 62.5999V59.8999H94.2006V62.6999C94.2006 63.1999 94.1006 63.7999 93.3006 63.7999C92.8006 63.7999 92.4006 63.3999 92.4006 62.5999V59.8999H90.8006V62.3999V62.4999C90.7006 62.8999 90.4006 63.0999 90.1006 63.0999H88.8006H88.7006H88.0006H87.9006C87.3006 62.9999 86.9006 62.5999 86.9006 61.9999V59.8999H85.3006V63.8999V63.9999C85.3006 64.6999 84.7006 65.2999 83.9006 65.2999C83.5006 65.2999 83.0006 65.1999 82.6006 64.9999L82.8006 66.2999C83.2006 66.4999 83.7006 66.5999 84.1006 66.5999C85.6006 66.6999 86.8006 65.5999 86.9006 64.1999C87.2006 64.4999 87.7006 64.5999 88.1006 64.5999H88.7006H88.8006H90.1006C90.9006 64.6999 91.5006 64.2999 91.9006 63.6999C92.2006 64.4999 92.7006 64.8999 93.4006 64.8999C94.5006 64.8999 94.9006 63.9999 94.9006 63.9999C94.9006 63.9999 95.6006 65.1999 97.2006 64.8999Z" fill="white"></path><path d="M107.5 66.4999C107.9 66.2999 108.3 66.0999 108.5 65.7999C108.6 65.5999 108.8 65.4999 108.8 65.2999L109 64.6999C109 64.6999 110.2 64.6999 110.6 64.6999C110.7 64.6999 110.7 64.6999 110.7 64.6999H112.2C112.4 64.6999 112.5 64.6999 112.6 64.6999C113.6 64.4999 114.3 63.6999 114.3 62.7999C114.3 62.6999 114.3 59.5999 114.3 59.5999H112.7V62.4999V62.5999C112.6 62.9999 112.3 63.1999 112 63.1999H110.7H110.6H109V59.5999H106.5C106.4 59.5999 106.3 59.5999 106.2 59.5999C104.8 59.5999 103.7 60.6999 103.7 62.0999V62.1999C103.7 63.5999 104.9 64.6999 106.4 64.6999H107.3C107 65.2999 106.1 65.2999 105.9 65.2999C105.6 65.2999 105.2 65.1999 104.9 65.0999L105 65.2999C105 65.3999 105.1 65.5999 105.1 65.6999C105.2 65.9999 105.3 66.2999 105.4 66.5999C105.8 66.5999 106.2 66.6999 106.6 66.6999C106.9 66.5999 107.2 66.5999 107.5 66.4999ZM106.4 62.8999H106.3C105.7 62.8999 105.3 62.3999 105.3 61.7999C105.3 61.1999 105.8 60.6999 106.4 60.6999H107.4V62.8999H106.4Z" fill="white"></path><path d="M113.8 65.3H112.2V66.6H113.8V65.3Z" fill="white"></path><path d="M117.6 56.0999L117.2 55.7999C117.2 55.8999 117 55.9 117 55.9H116.5V55.5999C116.5 55.3999 116.5 55.2999 116.7 55.2999C116.8 55.2999 116.9 55.4 116.9 55.5H117.5C117.4 54.9 117.2 54.7 116.7 54.7H116.6C116.1 54.8 115.8 55.1999 115.9 55.5999V55.9H115.6L115.4 56.5H117C117.2 56.5 117.5 56.2999 117.6 56.0999Z" fill="white"></path><path d="M117.301 57.0999H115.801V64.5999H117.301V57.0999Z" fill="white"></path><path d="M16.6006 68.8L14.6006 75.4H16.1006L16.6006 73.7H18.5006L19.0006 75.4H20.7006L18.6006 68.8H16.6006ZM16.8006 72.6L17.2006 71.2C17.3006 70.8 17.4006 70.3 17.5006 69.9C17.6006 70.3 17.7006 70.8 17.8006 71.2L18.2006 72.6H16.8006Z" fill="white"></path><path d="M25.0004 71.8999C25.6004 71.6999 26.1004 71.1999 26.1004 70.4999C26.1004 69.9999 25.8004 69.3999 25.3004 69.1999C24.6004 68.8999 24.0004 68.6999 23.3004 68.7999C22.7004 68.7999 22.0004 68.7999 21.4004 68.8999V75.3999C21.9004 75.4999 22.5004 75.4999 23.0004 75.4999C23.9004 75.5999 24.8004 75.3999 25.6004 74.8999C26.1004 74.5999 26.3004 73.9999 26.3004 73.4999C26.3004 72.6999 25.8004 72.0999 25.0004 71.8999ZM22.9004 69.7999C23.1004 69.7999 23.3004 69.7999 23.5004 69.7999C24.2004 69.7999 24.6004 70.0999 24.6004 70.5999C24.6004 71.0999 24.2004 71.3999 23.4004 71.3999H22.9004V69.7999ZM23.5004 74.2999C23.3004 74.2999 23.2004 74.2999 23.0004 74.2999V72.3999H23.5004C24.2004 72.3999 24.8004 72.5999 24.8004 73.2999C24.8004 73.9999 24.2004 74.2999 23.5004 74.2999Z" fill="white"></path><path d="M31.2004 72.6C31.2004 73.8 30.8004 74.3 30.0004 74.3C29.2004 74.3 28.8004 73.7 28.8004 72.6V68.8H27.4004V72.5C27.4004 74.6 28.3004 75.5 30.0004 75.5C31.7004 75.5 32.7004 74.5 32.7004 72.5V68.8H31.2004V72.6Z" fill="white"></path><path d="M38.5002 71.4C37.7002 71.1 37.3002 70.9 37.3002 70.5C37.3002 70.2 37.7002 69.9 38.3002 69.9C38.8002 69.9 39.3002 70 39.7002 70.2L40.0002 69C39.5002 68.8 38.9002 68.7 38.3002 68.7C36.7002 68.7 35.8002 69.6 35.8002 70.7C35.8002 71.7 36.5002 72.3 37.6002 72.7C38.4002 73 38.7002 73.2 38.7002 73.6C38.7002 74 38.4002 74.3 37.7002 74.3C37.1002 74.3 36.5002 74.2 36.0002 73.9L35.7002 75C36.3002 75.3 37.0002 75.4 37.6002 75.4C39.4002 75.4 40.2002 74.5 40.2002 73.4C40.2002 72.4 39.7002 71.8 38.5002 71.4Z" fill="white"></path><path d="M42.8008 68.8L40.8008 75.4H42.3008L42.8008 73.7H44.8008L45.3008 75.4H46.9008L44.8008 68.8H42.8008ZM43.0008 72.6L43.4008 71.2C43.5008 70.8 43.6008 70.3 43.7008 69.9C43.8008 70.3 43.9008 70.8 44.0008 71.2L44.5008 72.6H43.0008Z" fill="white"></path><path d="M51.2002 72.2999C51.9002 72.0999 52.4002 71.3999 52.4002 70.6999C52.4002 70.1999 52.2002 69.5999 51.8002 69.2999C51.2002 68.8999 50.4002 68.6999 49.7002 68.7999C49.0002 68.7999 48.4002 68.7999 47.7002 68.8999V75.3999H49.2002V72.7999H49.6002C50.2002 72.8999 50.5002 73.0999 50.7002 73.8999C50.8002 74.3999 50.9002 74.8999 51.1002 75.3999H52.6002C52.5002 75.0999 52.3002 74.2999 52.1002 73.4999C52.0002 72.9999 51.7002 72.4999 51.2002 72.2999ZM49.7002 71.6999H49.1002V69.8999C49.3002 69.8999 49.6002 69.8999 49.8002 69.8999C50.5002 69.8999 50.9002 70.1999 50.9002 70.7999C50.9002 71.2999 50.4002 71.6999 49.7002 71.6999Z" fill="white"></path><path d="M57.4004 71.3H54.9004V68.8H53.4004V75.4H54.9004V72.6H57.4004V75.4H58.9004V68.8H57.4004V71.3Z" fill="white"></path><path d="M61.7002 68.8L59.7002 75.4H61.2002L61.7002 73.7H63.7002L64.2002 75.4H65.8002L63.7002 68.8H61.7002ZM62.0002 72.6L62.4002 71.2C62.5002 70.8 62.6002 70.3 62.7002 69.9C62.8002 70.3 62.9002 70.8 63.0002 71.2L63.4002 72.6H62.0002Z" fill="white"></path><path d="M71.3006 69.4999C70.5006 68.9999 69.6006 68.6999 68.6006 68.7999C67.9006 68.7999 67.3006 68.7999 66.6006 68.8999V75.3999C67.2006 75.4999 67.7006 75.4999 68.3006 75.4999C69.3006 75.5999 70.4006 75.2999 71.3006 74.6999C72.1006 73.9999 72.5006 72.9999 72.4006 71.9999C72.5006 70.9999 72.1006 70.0999 71.3006 69.4999ZM70.9006 71.9999C70.9006 72.1999 70.9006 72.2999 70.9006 72.4999C70.7006 73.5999 69.7006 74.3999 68.6006 74.2999C68.4006 74.2999 68.3006 74.2999 68.1006 74.2999V69.9999C68.3006 69.8999 68.6006 69.8999 68.8006 69.8999C68.9006 69.8999 69.1006 69.8999 69.2006 69.8999C70.3006 69.9999 71.0006 70.9999 70.9006 71.9999Z" fill="white"></path><path d="M81.3008 71.3H78.8008V68.8H77.3008V75.4H78.8008V72.6H81.3008V75.4H82.8008V68.8H81.3008V71.3Z" fill="white"></path><path d="M90.0007 71.8C90.0007 70.1 88.6007 68.8 86.9007 68.8C86.8007 68.8 86.7007 68.8 86.6007 68.8C84.9007 68.9 83.6007 70.4 83.7007 72.2C83.7007 72.3 83.7007 72.4 83.7007 72.5C83.7007 74.2 85.1007 75.5 86.8007 75.5C87.0007 75.5 87.1007 75.5 87.3007 75.5C89.0007 75.3 90.3007 73.7 90.1007 72C90.1007 71.9 90.1007 71.8 90.0007 71.8ZM86.9007 74.3C85.9007 74.3 85.3007 73.4 85.3007 72.1C85.3007 70.8 85.9007 69.9 86.9007 69.9C87.9007 69.9 88.5007 70.9 88.5007 72.1C88.5007 73.3 87.9007 74.3 86.9007 74.3Z" fill="white"></path><path d="M92.6006 68.8H91.1006V75.3H95.2006V74.1H92.6006V68.8Z" fill="white"></path><path d="M100.701 69.4999C99.901 68.9999 99.001 68.6999 98.001 68.7999C97.301 68.7999 96.701 68.7999 96.001 68.8999V75.3999C96.601 75.4999 97.101 75.4999 97.701 75.4999C98.701 75.5999 99.801 75.2999 100.701 74.6999C101.501 73.9999 101.901 72.9999 101.801 71.9999C101.901 70.9999 101.501 70.0999 100.701 69.4999ZM100.301 71.9999C100.301 72.1999 100.301 72.2999 100.301 72.4999C100.101 73.5999 99.101 74.3999 98.001 74.2999C97.801 74.2999 97.701 74.2999 97.501 74.2999V69.9999C97.701 69.8999 98.001 69.8999 98.201 69.8999C98.301 69.8999 98.501 69.8999 98.601 69.8999C99.701 69.9999 100.401 70.9999 100.301 71.9999Z" fill="white"></path><path d="M104.4 68.8H102.9V75.4H104.4V68.8Z" fill="white"></path><path d="M109.701 70.7C109.701 71.7 109.701 72.6 109.801 73.5C109.501 72.7 109.101 71.9 108.701 71.2L107.301 68.8H105.601V75.4L107.101 75.5V73.5C107.101 72.4 107.001 71.5 107.001 70.6C107.301 71.4 107.701 72.1 108.101 72.9L109.501 75.4H111.101V68.8H109.701V70.7Z" fill="white"></path><path d="M115.5 71.6V72.8H116.5V74.2C116.3 74.3 116 74.3 115.8 74.3C114.6 74.2 113.7 73.3 113.7 72.1C113.7 70.9 114.7 70 115.9 70C116.4 70 116.9 70.1 117.4 70.3L117.7 69.1C117.1 68.9 116.5 68.8 115.9 68.8C113.7 68.8 112.1 70 112.1 72.2C112 73.1 112.4 74 113 74.6C113.8 75.3 114.7 75.6 115.7 75.5C116.4 75.5 117.2 75.3 117.9 75.1L118 71.6H115.5Z" fill="white"></path></g><defs><clipPath id="clip0_1068_1519"><rect width="117.9" height="84.4" fill="white"></rect></clipPath></defs></svg>